<svg width="100" height="100" viewBox="0 0 100 100" fill="none" xmlns="http://www.w3.org/2000/svg">
<path d="M0 18.75C0 11.8555 5.60547 6.25 12.5 6.25H87.5C94.3945 6.25 100 11.8555 100 18.75V81.25C100 88.1445 94.3945 93.75 87.5 93.75H12.5C5.60547 93.75 0 88.1445 0 81.25V18.75ZM63.2422 39.5508C62.3633 38.2617 60.918 37.5 59.375 37.5C57.832 37.5 56.3672 38.2617 55.5078 39.5508L38.5156 64.4727L33.3398 58.0078C32.4414 56.8945 31.0938 56.25 29.6875 56.25C28.2812 56.25 26.9141 56.8945 26.0352 58.0078L13.5352 73.6328C12.4023 75.0391 12.1875 76.9727 12.9688 78.5938C13.75 80.2148 15.3906 81.25 17.1875 81.25H35.9375H42.1875H82.8125C84.5508 81.25 86.1523 80.293 86.9531 78.75C87.7539 77.207 87.6562 75.3516 86.6797 73.9258L63.2422 39.5508ZM21.875 37.5C24.3614 37.5 26.746 36.5123 28.5041 34.7541C30.2623 32.996 31.25 30.6114 31.25 28.125C31.25 25.6386 30.2623 23.254 28.5041 21.4959C26.746 19.7377 24.3614 18.75 21.875 18.75C19.3886 18.75 17.004 19.7377 15.2459 21.4959C13.4877 23.254 12.5 25.6386 12.5 28.125C12.5 30.6114 13.4877 32.996 15.2459 34.7541C17.004 36.5123 19.3886 37.5 21.875 37.5Z" fill="black"/>
</svg>
