<svg width="200" height="150" viewBox="0 0 200 150" fill="none" xmlns="http://www.w3.org/2000/svg">
<rect width="200" height="150" fill="#D9D9D9"/>
<path d="M75 59.25C75 55.8027 77.8027 53 81.25 53H118.75C122.197 53 125 55.8027 125 59.25V90.5C125 93.9473 122.197 96.75 118.75 96.75H81.25C77.8027 96.75 75 93.9473 75 90.5V59.25ZM106.621 69.6504C106.182 69.0059 105.459 68.625 104.688 68.625C103.916 68.625 103.184 69.0059 102.754 69.6504L94.2578 82.1113L91.6699 78.8789C91.2207 78.3223 90.5469 78 89.8438 78C89.1406 78 88.457 78.3223 88.0176 78.8789L81.7676 86.6914C81.2012 87.3945 81.0938 88.3613 81.4844 89.1719C81.875 89.9824 82.6953 90.5 83.5938 90.5H92.9688H96.0938H116.406C117.275 90.5 118.076 90.0215 118.477 89.25C118.877 88.4785 118.828 87.5508 118.34 86.8379L106.621 69.6504ZM85.9375 68.625C87.1807 68.625 88.373 68.1311 89.2521 67.2521C90.1311 66.373 90.625 65.1807 90.625 63.9375C90.625 62.6943 90.1311 61.502 89.2521 60.6229C88.373 59.7439 87.1807 59.25 85.9375 59.25C84.6943 59.25 83.502 59.7439 82.6229 60.6229C81.7439 61.502 81.25 62.6943 81.25 63.9375C81.25 65.1807 81.7439 66.373 82.6229 67.2521C83.502 68.1311 84.6943 68.625 85.9375 68.625Z" fill="black"/>
</svg>
